<svg id="Layer_1" data-name="Layer 1" xmlns="http://www.w3.org/2000/svg" xmlns:xlink="http://www.w3.org/1999/xlink" viewBox="0 0 148.79 12.19"><defs><style>.cls-1{fill:#fff;}.cls-2{isolation:isolate;}.cls-3{fill:#8c898c;}.cls-4{fill:#d6d6d6;}.cls-5{mask:url(#mask);}.cls-6{mask:url(#mask-2);}</style><mask id="mask" x="33.53" y="1.11" width="8.21" height="9.83" maskUnits="userSpaceOnUse"><g transform="translate(-2.22 -0.95)"><g id="mask-6"><polygon id="path-5" class="cls-1" points="43.96 11.89 43.96 2.06 35.75 2.06 35.75 11.89 43.96 11.89"/></g></g></mask><mask id="mask-2" x="33.53" y="0.8" width="6.98" height="9.83" maskUnits="userSpaceOnUse"><g transform="translate(-2.22 -0.95)"><g id="mask-8"><polygon id="path-7" class="cls-1" points="35.75 11.59 42.73 11.59 42.73 1.76 35.75 1.76 35.75 11.59"/></g></g></mask></defs><title>watermark_gray</title><g class="cls-2"><path class="cls-3" d="M52.19,5.38h-.75l-.2-1.11a2,2,0,0,0-.63-.41,2.27,2.27,0,0,0-.9-.16,2.19,2.19,0,0,0-1.87.88,3.66,3.66,0,0,0-.66,2.24v.12a3.74,3.74,0,0,0,.64,2.25,2.07,2.07,0,0,0,1.78.89,2.68,2.68,0,0,0,1-.17,1.86,1.86,0,0,0,.67-.41l.2-1.11h.75V9.79a2.94,2.94,0,0,1-1,.78,3.44,3.44,0,0,1-1.57.34,3.16,3.16,0,0,1-2.5-1.13,4.17,4.17,0,0,1-1-2.84V6.83a4.22,4.22,0,0,1,1-2.84,3.15,3.15,0,0,1,2.52-1.13,3.4,3.4,0,0,1,1.57.35,3,3,0,0,1,1,.78Z" transform="translate(-2.22 -0.95)"/><path class="cls-3" d="M53.18,10.12l.88-.15V3.25l-.88-.15V2.42h1.93V5.76a2.12,2.12,0,0,1,.74-.65,2,2,0,0,1,1-.23,1.88,1.88,0,0,1,1.45.56,2.47,2.47,0,0,1,.52,1.72V10l.88.15v.68H56.85v-.68l.88-.15V7.14a1.56,1.56,0,0,0-.31-1.06,1.17,1.17,0,0,0-.92-.34,1.56,1.56,0,0,0-.79.21,1.73,1.73,0,0,0-.59.56V10l.88.15v.68H53.18Z" transform="translate(-2.22 -0.95)"/><path class="cls-3" d="M60.42,10.12,61.3,10V5.82l-.88-.15V5h1.93v5l.88.15v.68H60.42ZM62.36,3.5H61.3V2.42h1.06Z" transform="translate(-2.22 -0.95)"/><path class="cls-3" d="M63.88,10.12l.88-.15V5.82l-.88-.15V5H65.7l.08.86a2.11,2.11,0,0,1,.73-.72,1.94,1.94,0,0,1,1-.25A1.9,1.9,0,0,1,69,5.43a2.42,2.42,0,0,1,.52,1.7V10l.88.15v.68H67.54v-.68l.88-.15V7.15a1.57,1.57,0,0,0-.3-1.09,1.21,1.21,0,0,0-.93-.32,1.49,1.49,0,0,0-.81.22,1.61,1.61,0,0,0-.56.6V10l.88.15v.68H63.88Z" transform="translate(-2.22 -0.95)"/><path class="cls-3" d="M74.91,10.8c0-.16-.06-.3-.07-.42s0-.25,0-.38a2.56,2.56,0,0,1-.77.65,2.19,2.19,0,0,1-2.36-.18,1.63,1.63,0,0,1-.47-1.25,1.44,1.44,0,0,1,.67-1.28,3.26,3.26,0,0,1,1.83-.45h1.09V6.82A1,1,0,0,0,74.47,6a1.27,1.27,0,0,0-.9-.3,2.19,2.19,0,0,0-.7.1,1.32,1.32,0,0,0-.49.28l-.11.61h-.82V5.58a3.14,3.14,0,0,1,1-.51,3.81,3.81,0,0,1,1.22-.19,2.43,2.43,0,0,1,1.6.5,1.77,1.77,0,0,1,.61,1.45v2.8q0,.11,0,.22c0,.07,0,.14,0,.21l.43.06v.68ZM73.21,10a1.89,1.89,0,0,0,1-.25,1.58,1.58,0,0,0,.62-.61v-1H73.66a1.61,1.61,0,0,0-1,.3.9.9,0,0,0-.38.73.72.72,0,0,0,.24.58A1.08,1.08,0,0,0,73.21,10Z" transform="translate(-2.22 -0.95)"/><path class="cls-3" d="M83.41,3a2.76,2.76,0,0,1,1.95.64,2.2,2.2,0,0,1,.7,1.7,2.2,2.2,0,0,1-.7,1.7,2.77,2.77,0,0,1-1.95.64H81.75V10l.88.15v.68H79.81v-.68l.88-.15V3.81l-.88-.15V3h3.59ZM81.75,6.83h1.66a1.54,1.54,0,0,0,1.19-.43A1.52,1.52,0,0,0,85,5.33a1.55,1.55,0,0,0-.39-1.08,1.53,1.53,0,0,0-1.19-.44H81.75Z" transform="translate(-2.22 -0.95)"/><path class="cls-3" d="M86.83,7.84a3.2,3.2,0,0,1,.7-2.12,2.58,2.58,0,0,1,3.8,0A3.19,3.19,0,0,1,92,7.84V8a3.18,3.18,0,0,1-.7,2.13,2.59,2.59,0,0,1-3.8,0A3.19,3.19,0,0,1,86.83,8ZM87.89,8a2.75,2.75,0,0,0,.39,1.53,1.4,1.4,0,0,0,2.3,0A2.74,2.74,0,0,0,91,8V7.84a2.74,2.74,0,0,0-.39-1.52,1.4,1.4,0,0,0-2.3,0,2.78,2.78,0,0,0-.39,1.52Z" transform="translate(-2.22 -0.95)"/><path class="cls-3" d="M95.06,5.67l-.67.12.76,2.9.12.7h0l.15-.7L96.62,5h.85l1.17,3.7.17.78h0L99,8.68l.71-2.9L99,5.67V5h2.21v.68l-.5.07L99.27,10.8h-.85L97.28,7.26l-.24-1h0l-.23,1L95.68,10.8h-.85L93.36,5.74l-.51-.07V5h2.21Z" transform="translate(-2.22 -0.95)"/><path class="cls-3" d="M104.75,10.91a2.45,2.45,0,0,1-1.93-.81A3,3,0,0,1,102.1,8V7.77a3,3,0,0,1,.74-2.07,2.27,2.27,0,0,1,1.75-.82,2.2,2.2,0,0,1,1.77.71,2.81,2.81,0,0,1,.6,1.89v.66h-3.77l0,0a2.3,2.3,0,0,0,.42,1.38,1.35,1.35,0,0,0,1.14.54,2.68,2.68,0,0,0,.94-.15,2.18,2.18,0,0,0,.7-.42l.41.69a2.55,2.55,0,0,1-.82.51A3.3,3.3,0,0,1,104.75,10.91Zm-.16-5.2a1.15,1.15,0,0,0-.91.45,2.12,2.12,0,0,0-.46,1.13v0h2.68V7.17a1.62,1.62,0,0,0-.33-1A1.19,1.19,0,0,0,104.59,5.71Z" transform="translate(-2.22 -0.95)"/><path class="cls-3" d="M108,5.67V5h1.82l.1.84a2,2,0,0,1,.61-.7,1.41,1.41,0,0,1,.83-.25l.26,0,.2,0-.14,1-.6,0a1.21,1.21,0,0,0-.7.2,1.27,1.27,0,0,0-.44.55V10l.88.15v.68H108v-.68l.88-.15V5.82Z" transform="translate(-2.22 -0.95)"/><path class="cls-3" d="M118.79,3a2.76,2.76,0,0,1,1.95.64,2.2,2.2,0,0,1,.7,1.7,2.2,2.2,0,0,1-.7,1.7,2.77,2.77,0,0,1-1.95.64h-1.66V10l.88.15v.68h-2.81v-.68l.88-.15V3.81l-.88-.15V3h3.59Zm-1.66,3.86h1.66A1.54,1.54,0,0,0,120,6.41a1.52,1.52,0,0,0,.39-1.08A1.55,1.55,0,0,0,120,4.24a1.53,1.53,0,0,0-1.19-.44h-1.66Z" transform="translate(-2.22 -0.95)"/><path class="cls-3" d="M122.28,5.67V5h1.82l.1.84a2,2,0,0,1,.61-.7,1.41,1.41,0,0,1,.83-.25l.26,0,.2,0-.14,1-.6,0a1.21,1.21,0,0,0-.7.2,1.27,1.27,0,0,0-.44.55V10l.88.15v.68h-2.81v-.68l.88-.15V5.82Z" transform="translate(-2.22 -0.95)"/><path class="cls-3" d="M126.72,7.84a3.2,3.2,0,0,1,.7-2.12,2.58,2.58,0,0,1,3.8,0,3.19,3.19,0,0,1,.7,2.13V8a3.18,3.18,0,0,1-.7,2.13,2.59,2.59,0,0,1-3.8,0,3.19,3.19,0,0,1-.7-2.12Zm1.06.12a2.75,2.75,0,0,0,.39,1.53,1.4,1.4,0,0,0,2.3,0A2.74,2.74,0,0,0,130.87,8V7.84a2.74,2.74,0,0,0-.39-1.52,1.4,1.4,0,0,0-2.3,0,2.78,2.78,0,0,0-.39,1.52Z" transform="translate(-2.22 -0.95)"/><path class="cls-3" d="M134.69,11.28a1.93,1.93,0,0,1-.46,1.38,1.68,1.68,0,0,1-1.28.49l-.31,0-.29-.07.07-.83.22,0,.24,0a.7.7,0,0,0,.56-.24,1.16,1.16,0,0,0,.21-.77V5.82l-.87-.15V5h1.93Zm0-7.8H133.6V2.42h1.06Z" transform="translate(-2.22 -0.95)"/><path class="cls-3" d="M138.61,10.91a2.45,2.45,0,0,1-1.93-.81A3,3,0,0,1,136,8V7.77a3,3,0,0,1,.74-2.07,2.27,2.27,0,0,1,1.75-.82,2.2,2.2,0,0,1,1.77.71,2.81,2.81,0,0,1,.6,1.89v.66h-3.77l0,0a2.3,2.3,0,0,0,.42,1.38,1.35,1.35,0,0,0,1.14.54,2.68,2.68,0,0,0,.94-.15,2.18,2.18,0,0,0,.7-.42l.41.69a2.55,2.55,0,0,1-.82.51A3.3,3.3,0,0,1,138.61,10.91Zm-.16-5.2a1.15,1.15,0,0,0-.91.45,2.12,2.12,0,0,0-.46,1.13v0h2.68V7.17a1.62,1.62,0,0,0-.33-1A1.19,1.19,0,0,0,138.45,5.71Z" transform="translate(-2.22 -0.95)"/><path class="cls-3" d="M144.48,10.08a1.42,1.42,0,0,0,.93-.32,1,1,0,0,0,.4-.8h1V9a1.63,1.63,0,0,1-.67,1.33,2.45,2.45,0,0,1-1.62.58,2.34,2.34,0,0,1-1.94-.83A3.2,3.2,0,0,1,141.88,8V7.78a3.19,3.19,0,0,1,.67-2.07,2.34,2.34,0,0,1,1.93-.83,3.24,3.24,0,0,1,1.25.23,2.54,2.54,0,0,1,.92.63l0,1.29h-.84l-.23-.91a1.4,1.4,0,0,0-.48-.3,1.85,1.85,0,0,0-.67-.11,1.27,1.27,0,0,0-1.19.6,2.82,2.82,0,0,0-.36,1.47V8a2.85,2.85,0,0,0,.36,1.49A1.28,1.28,0,0,0,144.48,10.08Z" transform="translate(-2.22 -0.95)"/><path class="cls-3" d="M149.65,3.58V5h1.1v.78h-1.1V9.3a.79.79,0,0,0,.17.57.61.61,0,0,0,.45.17l.31,0,.29-.05.14.72a1.35,1.35,0,0,1-.44.16,2.79,2.79,0,0,1-.58.06,1.37,1.37,0,0,1-1-.39,1.69,1.69,0,0,1-.38-1.22V5.77h-.92V5h.92V3.58Z" transform="translate(-2.22 -0.95)"/></g><g class="cls-2"><path class="cls-3" d="M8.24,8.48a2.88,2.88,0,0,1-.92,1.92,3,3,0,0,1-2,.67,2.75,2.75,0,0,1-2.22-1,4,4,0,0,1-.84-2.66V6.66a4.46,4.46,0,0,1,.39-1.92,2.91,2.91,0,0,1,1.1-1.27A3.07,3.07,0,0,1,5.37,3a2.83,2.83,0,0,1,2,.7,2.91,2.91,0,0,1,.88,1.93h-1A2.25,2.25,0,0,0,6.62,4.3a1.76,1.76,0,0,0-1.25-.42,1.84,1.84,0,0,0-1.55.73,3.35,3.35,0,0,0-.56,2.08v.76a3.45,3.45,0,0,0,.53,2,1.72,1.72,0,0,0,1.49.75A2,2,0,0,0,6.6,9.84a2.16,2.16,0,0,0,.61-1.36Z" transform="translate(-2.22 -0.95)"/><path class="cls-3" d="M12,7.47A4.85,4.85,0,0,1,10,6.54a1.79,1.79,0,0,1-.6-1.37,1.89,1.89,0,0,1,.74-1.53A2.93,2.93,0,0,1,12.08,3a3.2,3.2,0,0,1,1.44.31,2.37,2.37,0,0,1,1,.86,2.2,2.2,0,0,1,.35,1.2h-1a1.43,1.43,0,0,0-.45-1.12,1.83,1.83,0,0,0-1.27-.41,1.88,1.88,0,0,0-1.19.34,1.12,1.12,0,0,0-.43.93,1,1,0,0,0,.41.81,4,4,0,0,0,1.38.61,6.42,6.42,0,0,1,1.53.6,2.32,2.32,0,0,1,.82.77,2,2,0,0,1,.27,1,1.83,1.83,0,0,1-.74,1.52,3.16,3.16,0,0,1-2,.57,3.67,3.67,0,0,1-1.5-.31,2.53,2.53,0,0,1-1.08-.85,2.06,2.06,0,0,1-.38-1.22h1a1.35,1.35,0,0,0,.52,1.12,2.21,2.21,0,0,0,1.4.41,2,2,0,0,0,1.25-.33A1.08,1.08,0,0,0,13.82,9a1.06,1.06,0,0,0-.4-.89A4.65,4.65,0,0,0,12,7.47Z" transform="translate(-2.22 -0.95)"/><path class="cls-3" d="M17.28,11h-1V3.14h1Z" transform="translate(-2.22 -0.95)"/><path class="cls-3" d="M21.47,7.47a4.85,4.85,0,0,1-1.93-.94,1.79,1.79,0,0,1-.6-1.37,1.89,1.89,0,0,1,.74-1.53A2.93,2.93,0,0,1,21.6,3,3.2,3.2,0,0,1,23,3.34a2.37,2.37,0,0,1,1,.86,2.2,2.2,0,0,1,.35,1.2h-1a1.43,1.43,0,0,0-.45-1.12,1.83,1.83,0,0,0-1.27-.41,1.88,1.88,0,0,0-1.19.34,1.12,1.12,0,0,0-.43.93,1,1,0,0,0,.41.81,4,4,0,0,0,1.38.61,6.42,6.42,0,0,1,1.53.6,2.32,2.32,0,0,1,.82.77,2,2,0,0,1,.27,1,1.83,1.83,0,0,1-.74,1.52,3.16,3.16,0,0,1-2,.57,3.67,3.67,0,0,1-1.5-.31,2.53,2.53,0,0,1-1.08-.85,2.06,2.06,0,0,1-.38-1.22h1a1.35,1.35,0,0,0,.52,1.12,2.21,2.21,0,0,0,1.4.41,2,2,0,0,0,1.25-.33A1.08,1.08,0,0,0,23.34,9a1.06,1.06,0,0,0-.4-.89A4.65,4.65,0,0,0,21.47,7.47Z" transform="translate(-2.22 -0.95)"/></g><g id="Line"><rect class="cls-4" x="27.19" width="1" height="12.05"/></g><g class="cls-5"><path id="Fill-1" class="cls-3" d="M41.67,5.2H41.3l-.06-.31H38.52V7.5h.54V5.7a.24.24,0,0,1,.24-.24h2.14a.24.24,0,0,1,.24.24v2h0v0a.24.24,0,0,1-.24.24H39.54V9.67l.31.06v.37H38.74V9.73l.31-.06V8h-.78A.24.24,0,0,1,38,7.74V4.65a.24.24,0,0,1,.24-.24h3l.06-.31h.38Zm-5.92,6.69H44V2.06H35.75Z" transform="translate(-2.22 -0.95)"/></g><g class="cls-6"><polygon id="Fill-4" class="cls-3" points="37.32 6.54 38.97 6.54 38.97 4.98 37.32 4.98 37.32 6.54"/></g></svg>